<svg width="160" height="160" viewBox="0 0 160 160" fill="none" xmlns="http://www.w3.org/2000/svg">
<path d="M60.8333 12.9904C72.6937 6.14279 87.3063 6.14279 99.1667 12.9904L128.449 29.8964C140.309 36.744 147.615 49.3988 147.615 63.094V96.906C147.615 110.601 140.309 123.256 128.449 130.104L99.1667 147.01C87.3063 153.857 72.6937 153.857 60.8333 147.01L31.5513 130.104C19.6909 123.256 12.3846 110.601 12.3846 96.906V63.094C12.3846 49.3988 19.6909 36.744 31.5513 29.8964L60.8333 12.9904Z" fill="white" stroke="#F7F7F7" stroke-width="3.33333"/>
<path d="M93.3338 93.3334C100.698 93.3334 106.667 87.3639 106.667 80.0001C106.667 72.6363 100.698 66.6667 93.3338 66.6667C85.97 66.6667 80.0005 72.6363 80.0005 80.0001C80.0005 87.3639 85.97 93.3334 93.3338 93.3334Z" fill="#19BCFE"/>
<path fill-rule="evenodd" clip-rule="evenodd" d="M66.6671 120C70.2033 120 73.5947 118.595 76.0952 116.095C78.5956 113.594 80.0004 110.203 80.0004 106.667V93.3333H66.6671C63.1309 93.3333 59.7395 94.738 57.239 97.2385C54.7385 99.739 53.3337 103.13 53.3337 106.667C53.3337 110.203 54.7385 113.594 57.239 116.095C59.7395 118.595 63.1309 120 66.6671 120Z" fill="#09CF83"/>
<path fill-rule="evenodd" clip-rule="evenodd" d="M66.6671 93.3334H80.0004V66.6667H66.6671C63.1309 66.6667 59.7395 68.0715 57.239 70.572C54.7385 73.0725 53.3337 76.4639 53.3337 80.0001C53.3337 83.5363 54.7385 86.9277 57.239 89.4282C59.7395 91.9287 63.1309 93.3334 66.6671 93.3334Z" fill="#A259FF"/>
<path fill-rule="evenodd" clip-rule="evenodd" d="M66.6671 66.6667H80.0004V40H66.6671C63.1309 40 59.7395 41.4048 57.239 43.9052C54.7385 46.4057 53.3337 49.7971 53.3337 53.3333C53.3337 56.8696 54.7385 60.2609 57.239 62.7614C59.7395 65.2619 63.1309 66.6667 66.6671 66.6667Z" fill="#F24E1E"/>
<path fill-rule="evenodd" clip-rule="evenodd" d="M93.3338 66.6667H80.0005V40H93.3338C96.87 40 100.261 41.4048 102.762 43.9052C105.262 46.4057 106.667 49.7971 106.667 53.3333C106.667 56.8696 105.262 60.2609 102.762 62.7614C100.261 65.2619 96.87 66.6667 93.3338 66.6667Z" fill="#FF7262"/>
</svg>
